<?xml version="1.0" encoding="utf-8"?>
<!-- Generator: Adobe Illustrator 17.0.0, SVG Export Plug-In . SVG Version: 6.00 Build 0)  -->
<!DOCTYPE svg PUBLIC "-//W3C//DTD SVG 1.1//EN" "http://www.w3.org/Graphics/SVG/1.1/DTD/svg11.dtd">
<svg version="1.1" id="Layer_1" xmlns="http://www.w3.org/2000/svg" xmlns:xlink="http://www.w3.org/1999/xlink" x="0px" y="0px"
	 width="340px" height="340px" viewBox="0 0 340 340" enable-background="new 0 0 340 340" xml:space="preserve">
<path d="M119.977,320.744c-6.987-0.001-13.975,0.021-20.962-0.028c-0.895-0.006-1.787-0.389-2.68-0.597
	c0.374-0.722,0.658-1.51,1.135-2.156c5.927-8.024,11.883-16.026,17.831-24.035c2.676-3.604,5.363-7.2,8.02-10.818
	c0.956-1.301,1.623-1.278,2.371,0.222c4.741,9.513,9.529,19.002,14.292,28.503c1.116,2.227,2.241,4.452,3.282,6.714
	c0.959,2.083,0.864,2.304-1.332,2.31c-6.32,0.017-12.641-0.07-18.961-0.113C121.973,320.739,120.975,320.745,119.977,320.744z"/>
<path d="M158.994,300.898c-0.741-1.033-1.715-2.135-2.338-3.408c-0.199-0.407,0.367-1.471,0.87-1.882
	c1.281-1.046,2.709-1.917,4.111-2.805c0.388-0.246,1.119-0.575,1.312-0.412c3.685,3.09,4.731-0.63,6.342-2.515
	c0.995-1.164,1.019-3.444,3.338-2.898c1.171,0.276,0.748,2.47-0.94,4.771c-2.942,4.011-7.426,6.057-11.337,8.831
	C160.109,300.752,159.729,300.734,158.994,300.898z"/>
<path d="M158.856,181.633c-3.737-0.623-7.27-1.393-9.596-4.625c-1.117-1.552-0.656-2.817,1.276-3.131
	c4.357-0.708,8.168,0.422,11.136,3.814c1.587,1.813,1.269,2.837-1.006,3.523C160.044,181.402,159.397,181.51,158.856,181.633z"/>
<path d="M301.448,95.955c-9.278-11.47-21.637-18.617-35.519-23.029c-14.255-4.529-28.911-6.214-43.844-4.536
	c-2.207,0.248-3.454-0.278-4.067-2.487c-0.441-1.591-1.204-3.094-1.846-4.627c-2.632-6.283-4.872-12.769-7.995-18.799
	c-6.24-12.048-15.798-19.765-29.658-21.945c-11.124-1.749-22.168-1.833-33.311-0.667c-5.443,0.569-10.134,2.443-14.526,5.812
	c-9.87,7.57-18.436,16.282-25.526,26.514c-4.549,6.566-6.76,13.695-6.038,21.636c0.33,3.629,0.949,7.24,1.614,10.827
	c0.623,3.367,0.688,3.384-2.848,2.638c-0.162-0.034-0.312-0.123-0.474-0.156c-15.542-3.103-31.177-5.291-47.083-4.363
	c-7.681,0.448-15.292,1.539-22.13,5.354c-6.852,3.823-10.759,9.501-10.569,17.724c0.191,8.256,1.836,16.177,4.846,23.812
	c7.347,18.633,19.021,34.254,33.676,47.732c11.002,10.118,23.171,18.428,37.411,23.379c1.909,0.664,3.188,1.44,2.84,3.867
	c-0.137,0.954,0.688,2.093,1.199,3.084c1.117,2.167,1.623,4.416,0.654,6.71c-0.253,0.599-1.825,0.865-1.835,1.307
	c-0.042,1.742-0.003,3.489,0.083,5.233c-0.836,2.039-2.426,4.182-2.559,5.988c1.057-0.122,2.086-0.631,3.008-1.193
	c0.099,0.516,0.218,1.027,0.355,1.533c-0.206,1.722-0.761,3.498-0.856,5.167c0.478-0.21,0.733-0.052,1.223-0.393
	c-0.106,1.443-0.431,2.956-0.162,4.348c0.813-0.743,1.409-1.723,1.866-2.755c0.012,0.039,0.025,0.078,0.037,0.117
	c-0.154,1.714,1.283,4.112,1.505,5.889c0.233,1.864,0.731,5.034,2.518,2.419c0.274,0.423,0.551,0.842,0.831,1.256
	c0.141,0.629,0.245,1.29,0.45,1.867c0.286,0.078,0.293-0.124,0.518-0.131c0.331,0.719,0.465,0.703,0.883,1.2
	c1.057,2.208,0.707,4.757,1.606,6.956c0.154-0.38,0.57-0.902,0.691-1.421c-0.088,1.701,0.933,3.878,2.058,5.135
	c0.723-0.433,1.322-2.277,2.081-2.442c0.438,0.442,0.898,0.868,1.378,1.281c0.27,0.855,0.348,1.908,0.492,2.449
	c0.588,2.209,2.108,6.033,4.95,4.282c0.079,0.547,0.392,0.695,0.524,1.124c0.236-0.239,0.747-0.42,1.006-0.692
	c1.171,0.958,2.04,3.243,2.281,4.748c1.581-0.347,2.854,0.035,4.407-0.424c3.432,2.215,7.909,0.72,11.344,2.238
	c0.027-0.186,1.192-2.432,2.073-3.209c0.313-0.094,0.626-0.177,0.94-0.242c1.179,0.281,1.157,2.309,2.911,1.464
	c0.106,0.334,0.261,0.578,0.343,0.919c2.043-0.109,8.194,3.175,8.75,0.338c0.769,0.129,1.284,0.661,1.64,1.424
	c1.141-1.707,1.522-0.367,2.756-0.206c1.562,0.205,1.835,0.229,3.305-0.074c2.675-0.552,4.618-0.592,7.299-1.175
	c2.549-0.554,6.945-0.629,8.719-2.569c0.454-0.497,0.915-1.162,1.32-1.896c0.336-0.178,0.672-0.359,1.004-0.556
	c3.695,0.655,5.189-2.253,7.219-4.377c1.134-1.186,2.496-2.154,3.755-3.221c2.649,2.063,2.721-0.781,3.597-1.941
	c1.302-1.724,2.384-3.624,3.775-5.267c0.736-0.87,1.899-3.239,2.939-0.08c0.298-0.222,0.743-0.381,0.871-0.677
	c1.253-2.893,2.431-5.818,3.685-8.711c0.326-0.753,0.768-1.97,1.286-2.042c3.387-0.472,3.276-3.329,3.743-5.52
	c1.139-5.344,3.921-8.703,9.549-9.577c1.103-0.171,2.017-1.551,3.023-2.367c1.073-0.87,2.153-1.731,3.23-2.596
	c-0.285,1.424-0.458,2.882-0.887,4.261c-0.443,1.421-1.214,2.737-1.694,4.149c-0.367,1.08-0.767,2.256-0.693,3.358
	c0.201,2.981,0.589,5.954,1.015,8.914c0.292,2.031,1.107,3.637,3.139,4.747c2.011,1.099,3.701,2.794,5.49,4.279
	c0.357,0.296,0.521,0.825,0.774,1.246c-0.478,0.094-0.981,0.331-1.43,0.253c-1.141-0.196-2.252-0.564-3.387-0.805
	c-1.638-0.348-2.245,0.483-1.747,1.92c0.923,2.665,1.951,5.3,3.068,7.89c1.427,3.308,1.485,3.284-1.138,5.612
	c-0.498,0.442-1.002,0.879-1.51,1.31c-20.707,17.55-41.415,35.099-62.119,52.651c-0.889,0.753-1.761,1.528-2.604,2.33
	c-0.222,0.211-0.308,0.563-0.457,0.851c0.384,0.19,0.759,0.52,1.154,0.544c1.162,0.071,2.331,0.019,3.497,0.019
	c11.995-0.001,23.99,0,35.985,0c0-0.177,0-0.355,0.001-0.532c12.659,0,25.318-0.034,37.976,0.029
	c2.488,0.013,4.464-0.74,6.315-2.409c4.203-3.791,8.542-7.431,12.824-11.134c3.416-2.954,3.439-2.964,1.913-7.079
	c-3.468-9.35-6.865-18.729-10.506-28.012c-1.113-2.838-1.529-5.17,0.631-7.721c1.021-1.206,1.386-2.991,1.959-4.547
	c0.514-1.396,0.563-3.753,1.419-4.072c1.958-0.73,2.087,1.906,3.199,2.92c2.817,2.565,4.852,2.921,8.049,0.898
	c0.743-0.47,1.206-0.914,0.572-1.955c-4.604-7.572-5.985-16.13-7.423-24.666c-0.221-1.311-0.517-2.612-0.683-3.929
	c-0.055-0.441,0.187-0.919,0.293-1.381c0.269,0.195,0.547,0.38,0.805,0.588c0.389,0.313,0.724,0.714,1.152,0.953
	c2.356,1.315,4.28,0.652,6.42-1.899c1.931-2.301-0.645-2.485-1.446-3.608c-0.951-1.332-1.857-2.826-2.267-4.385
	c-0.672-2.557-0.833-5.243-1.385-7.836c-0.547-2.566,0.607-3.892,2.693-5.209c4.919-3.106,9.858-6.243,14.425-9.831
	c14.432-11.34,25.595-25.198,31.431-42.847C318.384,132.381,315.322,113.107,301.448,95.955z M119.116,210.984
	c1.248-0.723,2.808-1.332,4.203-1.29c2.825,0.084,5.011-0.919,7.335-2.429c6.502-4.224,16.067-3.899,22.035,0.815
	c1.769,1.397,3.423,1.739,5.453,1.756c2.489,0.021,4.994,0.056,7.463,0.339c7.387,0.846,11.133,5.943,13.89,12.146
	c0.592,1.333-0.332,1.366-1.145,1.388c-1.997,0.054-3.997-0.008-5.994,0.049c-1.151,0.033-2.577-0.187-3.395,0.392
	c-3.161,2.236-6.686,1.647-11.112,1.78c-3.411,0.7-6.975-0.937-10.643-3.26c-2.868-1.816-6.356-2.838-9.704-3.656
	c-3.099-0.756-3.823,0.066-4.186,3.154c-0.4,3.403-0.401,3.475-3.738,3.412c-3.648-0.069-7.375,0.088-10.648-1.988
	C113.839,220.364,113.898,214.007,119.116,210.984z M211.632,180.514c-2.247,1.957-2.137,3.711-1.209,6.49
	c2.783,8.331,0.732,15.432-4.721,22.838c-2.908,3.949-6.511,6.989-10.572,9.561c-0.89,0.564-2.101,0.617-3.162,0.916
	c-1.167,0.328-1.742,0.159-1.764-1.317c-0.024-1.602-0.059-3.424-0.795-4.76c-7.421-13.464-17.882-23.478-32.818-28.24
	c-1.107-0.353-2.249-0.606-3.386-0.847c-1.596-0.338-2.938-0.475-3.453-2.707c-0.561-2.431-2.928-3.689-5.394-3.717
	c-2.334-0.026-3.95-0.725-5.499-2.525c-0.997-1.159-2.728-1.957-4.27-2.317c-2.957-0.69-4.871,1.524-3.892,4.439
	c0.628,1.872,1.601,3.66,2.635,5.354c0.834,1.366,0.61,1.954-0.877,2.44c-4.781,1.56-9.181,3.855-13.179,6.937
	c-6.471,4.988-11.112,11.405-14.721,18.641c-0.519,1.04-0.923,2.137-1.424,3.187c-0.586,1.227-1.543,0.77-1.781-0.01
	c-0.571-1.869-1.122-3.836-1.14-5.768c-0.103-11.328-0.051-22.657-0.051-33.985c-0.049,0-0.098,0-0.147,0
	c-2.353-10.879-2.603-21.879-0.092-32.98c-0.151-5.411,2.127-8.863,6.565-11.33c1.307-0.727,2.611-1.477,3.979-2.073
	c1.341-0.583,3.383-1.791,4.022-1.3c1.492,1.147,2.422,3.099,3.346,4.848c0.19,0.36-0.496,1.416-1.018,1.88
	c-2.111,1.878-4.34,3.624-6.481,5.469c-2.167,1.868-3.36,4.088-2.353,7.052c0.26,0.764,0.349,1.586,0.517,2.382
	c0.601-0.552,1.298-1.031,1.787-1.669c1.801-2.348,4.112-3.195,7.003-2.669c0.813,0.148,1.66,0.105,2.492,0.15
	c2.126,0.114,5.096-0.608,6.206,0.512c2.516,2.539,4.21,5.932,6.005,9.11c0.356,0.631-0.237,1.886-0.562,2.792
	c-0.505,1.406-1.201,2.744-1.709,4.149c-0.112,0.309,0.226,0.781,0.357,1.178c0.375-0.23,0.936-0.371,1.098-0.704
	c3.413-7.013,6.934-13.981,10.075-21.115c1.115-2.533,1.135-5.526,1.933-8.227c0.653-2.212,1.47-4.454,2.658-6.413
	c2.007-3.307,4.487-3.219,6.462,0.023c0.601,0.987,1.347,2.078,1.42,3.161c0.28,4.181,3.129,5.94,6.438,7.398
	c1.064,0.469,2.048,1.136,3.132,1.542c2.047,0.767,3.63,1.646,2.873,4.346c-0.358,1.276,0.751,1.666,1.835,1.712
	c3.993,0.17,7.926,0.529,11.716,2.033c1.162,0.461,2.635,0.253,3.956,0.176c3.466-0.203,6.928-0.494,10.389-0.775
	c0.482-0.039,0.954-0.215,1.43-0.328c-0.353-0.311-0.661-0.704-1.065-0.919c-2.639-1.411-5.252-2.883-7.963-4.143
	c-3.314-1.541-4.265-5.341-7.151-7.28c-0.143-0.096,0.131-1.266,0.508-1.61c2.636-2.41,5.764-2.367,8.901-1.368
	c2.365,0.753,4.624,1.839,6.942,2.745c1.085,0.424,1.645-0.073,1.397-1.148c-0.261-1.126-0.792-2.187-1.143-3.296
	c-0.124-0.392-0.066-0.841-0.092-1.264c0.304,0.034,0.644-0.008,0.907,0.114c10.14,4.721,18.527,11.32,22.298,22.291
	c3.253,9.465,1.232,18.359-4.018,26.633C214.039,177.747,212.986,179.335,211.632,180.514z M238.598,183.117
	c-1.113,6.426-3.464,12.438-6.301,18.276c-2.027,4.172-3.938,8.407-6.149,12.479c-1.171,2.156-2.695,4.188-4.375,5.982
	c-2.583,2.76-3.195,2.564-4.309-1.203c-0.411-1.392-0.377-2.937-0.407-4.415c-0.058-2.819-0.017-5.641-0.017-8.462
	c-0.01,0-0.02,0-0.029,0c0-2.822-0.067-5.645,0.013-8.465c0.199-7.035,3.317-12.719,8.295-17.498
	c0.333-0.319,0.841-0.456,1.267-0.677c0.183,0.396,0.483,0.779,0.528,1.19c0.182,1.643,0.285,3.296,0.417,4.945
	c1.2-1.304,2.386-2.621,3.603-3.909c1.365-1.444,2.622-3.035,4.175-4.243c1.651-1.285,3.377-0.499,3.583,1.563
	C239.037,180.137,238.85,181.66,238.598,183.117z"/>
</svg>
